<svg xmlns="http://www.w3.org/2000/svg" xmlns:xlink="http://www.w3.org/1999/xlink" width="256" zoomAndPan="magnify" viewBox="0 0 192 97.5" height="130" preserveAspectRatio="xMidYMid meet" version="1.0"><defs><g/><clipPath id="d8186256b4"><path d="M 0.488281 0 L 191.507812 0 L 191.507812 97.003906 L 0.488281 97.003906 Z M 0.488281 0 " clip-rule="nonzero"/></clipPath><clipPath id="e64eac558d"><path d="M 0.488281 15.195312 L 58.691406 15.195312 L 58.691406 81.605469 L 0.488281 81.605469 Z M 0.488281 15.195312 " clip-rule="nonzero"/></clipPath></defs><g clip-path="url(#d8186256b4)"><path fill="#ffffff" d="M 0.488281 0 L 191.511719 0 L 191.511719 97.003906 L 0.488281 97.003906 Z M 0.488281 0 " fill-opacity="1" fill-rule="nonzero"/></g><g clip-path="url(#e64eac558d)"><path fill="#fdb714" d="M 55.441406 15.199219 L 40.585938 15.199219 C 39.886719 15.199219 39.535156 16.046875 40.03125 16.539062 C 40.933594 17.429688 41.746094 18.3125 42.179688 19.15625 C 43.585938 21.859375 46.914062 23.589844 47.5625 24.082031 C 48.210938 24.574219 48.980469 25.136719 48.195312 26.246094 C 47.40625 27.351562 45.332031 26.726562 43.589844 25.980469 C 41.851562 25.238281 39.984375 23.109375 38.632812 22.609375 C 37.28125 22.113281 36.519531 23.144531 35.601562 25.101562 C 34.6875 27.054688 36.3125 34.125 36.636719 37.957031 C 36.960938 41.789062 36.808594 42.539062 35.957031 42.824219 C 35.105469 43.105469 34.324219 41.230469 33.707031 37.46875 C 32.183594 27.441406 32.402344 29.746094 31.558594 30.292969 C 30.710938 30.84375 31.207031 35.550781 31.273438 38.386719 C 31.34375 41.226562 31.007812 43.304688 30.609375 44.125 C 30.214844 44.945312 29.320312 44.886719 28.722656 43.960938 C 28.125 43.035156 28.347656 37.945312 28.273438 35.738281 C 28.195312 33.535156 28.65625 29.007812 27.65625 29.527344 C 26.65625 30.050781 26.503906 37.976562 26.453125 40.472656 C 26.402344 42.96875 24.757812 43.167969 24.0625 42 C 23.371094 40.828125 23.484375 36.707031 23.789062 33.125 C 24.09375 29.542969 24.089844 27.457031 23.535156 27.476562 C 22.972656 27.496094 22.207031 29.109375 20.371094 33.285156 C 18.535156 37.460938 17.863281 36.796875 17.621094 36.675781 C 17.382812 36.550781 16.921875 36.253906 17.035156 34.828125 C 17.144531 33.398438 19.839844 28.238281 20.117188 27.367188 C 20.390625 26.496094 20.910156 20.613281 21.328125 18.550781 L 21.332031 18.527344 C 21.6875 16.808594 20.378906 15.199219 18.625 15.199219 L 4 15.199219 C 2.058594 15.199219 0.488281 16.773438 0.488281 18.714844 L 0.488281 78.019531 C 0.488281 79.960938 2.058594 81.535156 4 81.535156 L 18.648438 81.535156 C 20.390625 81.535156 21.691406 79.9375 21.339844 78.234375 L 21.328125 78.183594 C 20.910156 76.121094 20.390625 70.234375 20.117188 69.363281 C 19.839844 68.496094 17.144531 63.335938 17.035156 61.90625 C 16.921875 60.480469 17.382812 60.183594 17.621094 60.058594 C 17.863281 59.9375 18.535156 59.273438 20.371094 63.449219 C 22.207031 67.625 22.972656 69.238281 23.535156 69.257812 C 24.089844 69.277344 24.09375 67.191406 23.789062 63.609375 C 23.484375 60.023438 23.371094 55.90625 24.0625 54.734375 C 24.757812 53.566406 26.402344 53.765625 26.453125 56.261719 C 26.503906 58.757812 26.65625 66.683594 27.65625 67.207031 C 28.65625 67.726562 28.195312 63.199219 28.273438 60.992188 C 28.347656 58.785156 28.125 53.699219 28.722656 52.773438 C 29.320312 51.84375 30.214844 51.789062 30.609375 52.609375 C 31.007812 53.429688 31.34375 55.507812 31.273438 58.347656 C 31.207031 61.183594 30.710938 65.890625 31.558594 66.4375 C 32.402344 66.988281 32.183594 69.292969 33.707031 59.265625 C 34.324219 55.503906 35.105469 53.628906 35.957031 53.910156 C 36.808594 54.195312 36.960938 54.945312 36.636719 58.777344 C 36.3125 62.609375 34.6875 69.679688 35.601562 71.632812 C 36.519531 73.585938 37.28125 74.621094 38.632812 74.125 C 39.984375 73.625 41.851562 71.5 43.589844 70.753906 C 45.332031 70.007812 47.40625 69.382812 48.195312 70.488281 C 48.980469 71.597656 48.210938 72.160156 47.5625 72.652344 C 46.914062 73.144531 43.585938 74.875 42.179688 77.578125 C 41.746094 78.421875 40.933594 79.304688 40.03125 80.195312 C 39.535156 80.6875 39.886719 81.535156 40.585938 81.535156 L 55.441406 81.535156 C 57.382812 81.535156 58.957031 79.960938 58.957031 78.019531 L 58.957031 18.714844 C 58.957031 16.773438 57.382812 15.199219 55.441406 15.199219 " fill-opacity="1" fill-rule="nonzero"/></g><g fill="#000000" fill-opacity="1"><g transform="translate(65.727689, 44.61973)"><g><path d="M 2.125 0 L 2.125 -28.28125 L 6.421875 -28.28125 L 6.421875 -16.84375 L 10.28125 -16.84375 L 10.28125 -28.28125 L 14.59375 -28.28125 L 14.59375 0 L 10.28125 0 L 10.28125 -13.140625 L 6.421875 -13.140625 L 6.421875 0 Z M 2.125 0 "/></g></g></g><g fill="#000000" fill-opacity="1"><g transform="translate(82.441446, 44.61973)"><g><path d="M 6.109375 -7.859375 C 6.109375 -6.191406 6.234375 -5.03125 6.484375 -4.375 C 6.734375 -3.726562 7.25 -3.40625 8.03125 -3.40625 C 8.8125 -3.40625 9.328125 -3.738281 9.578125 -4.40625 C 9.828125 -5.082031 9.953125 -6.234375 9.953125 -7.859375 L 9.953125 -21.03125 C 9.953125 -22.375 9.820312 -23.351562 9.5625 -23.96875 C 9.3125 -24.582031 8.816406 -24.890625 8.078125 -24.890625 C 7.347656 -24.890625 6.835938 -24.582031 6.546875 -23.96875 C 6.253906 -23.351562 6.109375 -22.378906 6.109375 -21.046875 Z M 14.265625 -7.90625 C 14.265625 -5.144531 13.769531 -3.082031 12.78125 -1.71875 C 11.800781 -0.351562 10.222656 0.328125 8.046875 0.328125 C 5.878906 0.328125 4.289062 -0.351562 3.28125 -1.71875 C 2.269531 -3.09375 1.765625 -5.15625 1.765625 -7.90625 L 1.765625 -20.84375 C 1.765625 -26.019531 3.878906 -28.609375 8.109375 -28.609375 C 10.296875 -28.609375 11.867188 -27.945312 12.828125 -26.625 C 13.785156 -25.3125 14.265625 -23.382812 14.265625 -20.84375 Z M 14.265625 -7.90625 "/></g></g></g><g fill="#000000" fill-opacity="1"><g transform="translate(98.496301, 44.61973)"><g><path d="M 2.125 0 L 2.125 -28.28125 L 5.5 -28.28125 L 11.484375 -11.3125 L 11.1875 -19.03125 L 11.1875 -28.28125 L 15.0625 -28.28125 L 15.0625 0 L 12 0 L 5.84375 -17.5625 L 6.09375 -10.140625 L 6.09375 0 Z M 2.125 0 "/></g></g></g><g fill="#fdb714" fill-opacity="1"><g transform="translate(115.686333, 44.61973)"><g><path d="M 7.8125 -13.28125 L 6.421875 -13.359375 L 6.421875 0 L 2.125 0 L 2.125 -28.28125 L 9.234375 -28.28125 C 10.710938 -28.28125 11.816406 -27.984375 12.546875 -27.390625 C 13.273438 -26.796875 13.753906 -25.960938 13.984375 -24.890625 C 14.210938 -23.828125 14.328125 -22.4375 14.328125 -20.71875 C 14.328125 -19 14.144531 -17.6875 13.78125 -16.78125 C 13.414062 -15.882812 12.742188 -15.28125 11.765625 -14.96875 C 12.734375 -14.800781 13.410156 -14.144531 13.796875 -13 C 14.179688 -11.851562 14.375 -9.46875 14.375 -5.84375 C 14.375 -2.21875 14.429688 -0.269531 14.546875 0 L 10.234375 0 C 10.128906 -0.21875 10.078125 -3.597656 10.078125 -10.140625 C 10.078125 -11.390625 9.925781 -12.21875 9.625 -12.625 C 9.320312 -13.039062 8.71875 -13.257812 7.8125 -13.28125 Z M 6.4375 -16.6875 L 8.15625 -16.6875 C 8.707031 -16.6875 9.113281 -16.8125 9.375 -17.0625 C 9.632812 -17.3125 9.816406 -17.734375 9.921875 -18.328125 C 10.023438 -18.929688 10.078125 -19.847656 10.078125 -21.078125 L 10.078125 -21.25 C 10.078125 -22.789062 9.945312 -23.796875 9.6875 -24.265625 C 9.425781 -24.734375 8.832031 -24.96875 7.90625 -24.96875 L 6.4375 -24.96875 Z M 6.4375 -16.6875 "/></g></g></g><g fill="#000000" fill-opacity="1"><g transform="translate(65.727689, 78.197535)"><g><path d="M 2.125 0 L 2.125 -28.28125 L 5.5 -28.28125 L 11.484375 -11.3125 L 11.1875 -19.03125 L 11.1875 -28.28125 L 15.0625 -28.28125 L 15.0625 0 L 12 0 L 5.84375 -17.5625 L 6.09375 -10.140625 L 6.09375 0 Z M 2.125 0 "/></g></g></g><g fill="#000000" fill-opacity="1"><g transform="translate(82.907508, 78.197535)"><g><path d="M 2.125 0 L 2.125 -28.28125 L 11.59375 -28.28125 L 11.59375 -24.5625 L 6.421875 -24.5625 L 6.421875 -16.34375 L 11.34375 -16.34375 L 11.34375 -12.703125 L 6.421875 -12.703125 L 6.421875 -3.71875 L 11.796875 -3.71875 L 11.796875 0 Z M 2.125 0 "/></g></g></g><g fill="#000000" fill-opacity="1"><g transform="translate(96.021379, 78.197535)"><g><path d="M 3.5625 0 L 3.5625 -24.546875 L 0.25 -24.546875 L 0.25 -28.28125 L 11.03125 -28.28125 L 11.03125 -24.546875 L 7.859375 -24.546875 L 7.859375 0 Z M 3.5625 0 "/></g></g></g><g fill="#000000" fill-opacity="1"><g transform="translate(107.319241, 78.197535)"><g><path d="M 4.421875 0 L 0.96875 -28.28125 L 4.8125 -28.28125 L 6.890625 -8.125 L 9.53125 -28.28125 L 13 -28.28125 L 15.65625 -8.125 L 17.484375 -28.28125 L 21.359375 -28.28125 L 18.109375 0 L 13.8125 0 L 11.3125 -18.796875 L 8.703125 0 Z M 4.421875 0 "/></g></g></g><g fill="#000000" fill-opacity="1"><g transform="translate(129.625678, 78.197535)"><g><path d="M 6.109375 -7.859375 C 6.109375 -6.191406 6.234375 -5.03125 6.484375 -4.375 C 6.734375 -3.726562 7.25 -3.40625 8.03125 -3.40625 C 8.8125 -3.40625 9.328125 -3.738281 9.578125 -4.40625 C 9.828125 -5.082031 9.953125 -6.234375 9.953125 -7.859375 L 9.953125 -21.03125 C 9.953125 -22.375 9.820312 -23.351562 9.5625 -23.96875 C 9.3125 -24.582031 8.816406 -24.890625 8.078125 -24.890625 C 7.347656 -24.890625 6.835938 -24.582031 6.546875 -23.96875 C 6.253906 -23.351562 6.109375 -22.378906 6.109375 -21.046875 Z M 14.265625 -7.90625 C 14.265625 -5.144531 13.769531 -3.082031 12.78125 -1.71875 C 11.800781 -0.351562 10.222656 0.328125 8.046875 0.328125 C 5.878906 0.328125 4.289062 -0.351562 3.28125 -1.71875 C 2.269531 -3.09375 1.765625 -5.15625 1.765625 -7.90625 L 1.765625 -20.84375 C 1.765625 -26.019531 3.878906 -28.609375 8.109375 -28.609375 C 10.296875 -28.609375 11.867188 -27.945312 12.828125 -26.625 C 13.785156 -25.3125 14.265625 -23.382812 14.265625 -20.84375 Z M 14.265625 -7.90625 "/></g></g></g><g fill="#000000" fill-opacity="1"><g transform="translate(145.680533, 78.197535)"><g><path d="M 7.8125 -13.28125 L 6.421875 -13.359375 L 6.421875 0 L 2.125 0 L 2.125 -28.28125 L 9.234375 -28.28125 C 10.710938 -28.28125 11.816406 -27.984375 12.546875 -27.390625 C 13.273438 -26.796875 13.753906 -25.960938 13.984375 -24.890625 C 14.210938 -23.828125 14.328125 -22.4375 14.328125 -20.71875 C 14.328125 -19 14.144531 -17.6875 13.78125 -16.78125 C 13.414062 -15.882812 12.742188 -15.28125 11.765625 -14.96875 C 12.734375 -14.800781 13.410156 -14.144531 13.796875 -13 C 14.179688 -11.851562 14.375 -9.46875 14.375 -5.84375 C 14.375 -2.21875 14.429688 -0.269531 14.546875 0 L 10.234375 0 C 10.128906 -0.21875 10.078125 -3.597656 10.078125 -10.140625 C 10.078125 -11.390625 9.925781 -12.21875 9.625 -12.625 C 9.320312 -13.039062 8.71875 -13.257812 7.8125 -13.28125 Z M 6.4375 -16.6875 L 8.15625 -16.6875 C 8.707031 -16.6875 9.113281 -16.8125 9.375 -17.0625 C 9.632812 -17.3125 9.816406 -17.734375 9.921875 -18.328125 C 10.023438 -18.929688 10.078125 -19.847656 10.078125 -21.078125 L 10.078125 -21.25 C 10.078125 -22.789062 9.945312 -23.796875 9.6875 -24.265625 C 9.425781 -24.734375 8.832031 -24.96875 7.90625 -24.96875 L 6.4375 -24.96875 Z M 6.4375 -16.6875 "/></g></g></g><g fill="#000000" fill-opacity="1"><g transform="translate(161.912163, 78.197535)"><g><path d="M 2.125 0 L 2.125 -28.28125 L 6.421875 -28.28125 L 6.421875 -15.265625 L 10.734375 -28.28125 L 15.1875 -28.28125 L 10.484375 -14.328125 L 15.546875 0 L 11 0 L 6.453125 -13.203125 L 6.453125 0 Z M 2.125 0 "/></g></g></g></svg>